<svg id="visual" viewBox="0 0 900 600" width="900" height="600" xmlns="http://www.w3.org/2000/svg" xmlns:xlink="http://www.w3.org/1999/xlink" version="1.1"><rect x="0" y="0" width="900" height="600" fill="#001220"></rect><path d="M0 346L25 355.5C50 365 100 384 150 388.8C200 393.7 250 384.3 300 378C350 371.7 400 368.3 450 367C500 365.7 550 366.3 600 373.2C650 380 700 393 750 390.2C800 387.3 850 368.7 875 359.3L900 350L900 601L875 601C850 601 800 601 750 601C700 601 650 601 600 601C550 601 500 601 450 601C400 601 350 601 300 601C250 601 200 601 150 601C100 601 50 601 25 601L0 601Z" fill="#1e549f"></path><path d="M0 409L25 412.3C50 415.7 100 422.3 150 428.2C200 434 250 439 300 432.8C350 426.7 400 409.3 450 400C500 390.7 550 389.3 600 397.8C650 406.3 700 424.7 750 432C800 439.3 850 435.7 875 433.8L900 432L900 601L875 601C850 601 800 601 750 601C700 601 650 601 600 601C550 601 500 601 450 601C400 601 350 601 300 601C250 601 200 601 150 601C100 601 50 601 25 601L0 601Z" fill="#605cb0"></path><path d="M0 470L25 464.7C50 459.3 100 448.7 150 448C200 447.3 250 456.7 300 466C350 475.3 400 484.7 450 483C500 481.3 550 468.7 600 459.7C650 450.7 700 445.3 750 442.5C800 439.7 850 439.3 875 439.2L900 439L900 601L875 601C850 601 800 601 750 601C700 601 650 601 600 601C550 601 500 601 450 601C400 601 350 601 300 601C250 601 200 601 150 601C100 601 50 601 25 601L0 601Z" fill="#9362bb"></path><path d="M0 516L25 514.3C50 512.7 100 509.3 150 504.7C200 500 250 494 300 492.8C350 491.7 400 495.3 450 497.7C500 500 550 501 600 503.3C650 505.7 700 509.3 750 508.2C800 507 850 501 875 498L900 495L900 601L875 601C850 601 800 601 750 601C700 601 650 601 600 601C550 601 500 601 450 601C400 601 350 601 300 601C250 601 200 601 150 601C100 601 50 601 25 601L0 601Z" fill="#c267bf"></path><path d="M0 534L25 539.7C50 545.3 100 556.7 150 559.2C200 561.7 250 555.3 300 555.2C350 555 400 561 450 557.2C500 553.3 550 539.7 600 536.3C650 533 700 540 750 541C800 542 850 537 875 534.5L900 532L900 601L875 601C850 601 800 601 750 601C700 601 650 601 600 601C550 601 500 601 450 601C400 601 350 601 300 601C250 601 200 601 150 601C100 601 50 601 25 601L0 601Z" fill="#ee6cbc"></path></svg>